<?xml version="1.0" encoding="UTF-8" standalone="no"?>
<svg
   xmlns:dc="http://purl.org/dc/elements/1.1/"
   xmlns:cc="http://creativecommons.org/ns#"
   xmlns:rdf="http://www.w3.org/1999/02/22-rdf-syntax-ns#"
   xmlns:svg="http://www.w3.org/2000/svg"
   xmlns="http://www.w3.org/2000/svg"
   xmlns:sodipodi="http://sodipodi.sourceforge.net/DTD/sodipodi-0.dtd"
   xmlns:inkscape="http://www.inkscape.org/namespaces/inkscape"
   inkscape:export-ydpi="192"
   inkscape:export-xdpi="192"
   inkscape:export-filename="C:\Users\rahul\Pictures\rpc.png"
   sodipodi:docname="rpc_logo.svg"
   inkscape:version="1.0 (4035a4fb49, 2020-05-01)"
   id="svg8"
   version="1.1"
   viewBox="0 0 38.236275 21.557985"
   height="21.557985mm"
   width="38.236275mm">
  <title
     id="title54">Rahul Pai Creations</title>
  <defs
     id="defs2">
    <rect
       id="rect50"
       height="40.443451"
       width="66.145836"
       y="88.257439"
       x="25.891369" />
  </defs>
  <sodipodi:namedview
     inkscape:window-maximized="1"
     inkscape:window-y="-8"
     inkscape:window-x="-8"
     inkscape:window-height="705"
     inkscape:window-width="1366"
     showgrid="false"
     inkscape:document-rotation="0"
     inkscape:current-layer="layer1"
     inkscape:document-units="mm"
     inkscape:cy="33.600523"
     inkscape:cx="56.649667"
     inkscape:zoom="4"
     inkscape:pageshadow="2"
     inkscape:pageopacity="0.0"
     borderopacity="1.0"
     bordercolor="#666666"
     pagecolor="#ffffff"
     id="base" />
  <metadata
     id="metadata5">
    <rdf:RDF>
      <cc:Work
         rdf:about="">
        <dc:format>image/svg+xml</dc:format>
        <dc:type
           rdf:resource="http://purl.org/dc/dcmitype/StillImage" />
        <dc:title>Rahul Pai Creations</dc:title>
      </cc:Work>
    </rdf:RDF>
  </metadata>
  <g
     transform="translate(-36.470169,-99.625003)"
     id="layer1"
     inkscape:groupmode="layer"
     inkscape:label="Layer 1">
    <g
       style="font-style:normal;font-weight:normal;font-size:24.6944px;line-height:1.25;font-family:sans-serif;fill:#ffffff;fill-opacity:1;stroke:none;stroke-width:0.637917"
       id="text12"
       transform="scale(-1,1)"
       aria-label="R">
      <path
         id="path58"
         style="font-style:normal;font-variant:normal;font-weight:normal;font-stretch:normal;font-size:24.6944px;font-family:'Times New Roman';-inkscape-font-specification:'Times New Roman, ';fill:#ffffff;stroke-width:0.637917"
         d="m -37.296942,116.35041 h -4.364928 l -5.534536,-7.64465 q -0.614949,0.0241 -1.000799,0.0241 -0.156751,0 -0.337618,0 -0.180868,-0.0121 -0.373793,-0.0241 v 4.75078 q 0,1.5434 0.337619,1.91719 0.458197,0.53054 1.374591,0.53054 h 0.639064 v 0.44614 h -7.005589 v -0.44614 h 0.614948 q 1.036972,0 1.483111,-0.67524 0.253214,-0.37379 0.253214,-1.77249 v -10.56265 q 0,-1.5434 -0.337619,-1.91719 -0.470254,-0.53054 -1.398706,-0.53054 h -0.614948 v -0.44614 h 5.956559 q 2.604488,0 3.834385,0.38585 1.241954,0.37379 2.098059,1.3987 0.868163,1.01286 0.868163,2.42362 0,1.50723 -0.988741,2.61655 -0.976683,1.10932 -3.038569,1.56751 l 3.376188,4.69049 q 1.15755,1.61575 1.989539,2.14629 0.831989,0.53055 2.170406,0.67524 z m -11.611674,-8.4043 q 0.229099,0 0.397908,0.0121 0.16881,0 0.27733,0 2.339216,0 3.520881,-1.01285 1.193724,-1.01286 1.193724,-2.58038 0,-1.53134 -0.964625,-2.4839 -0.952567,-0.96463 -2.532141,-0.96463 -0.699353,0 -1.893077,0.2291 z" />
    </g>
    <g
       style="font-style:normal;font-weight:normal;font-size:4.71861px;line-height:1.25;font-family:sans-serif;fill:#ffffff;fill-opacity:1;stroke:none;stroke-width:0.0884739"
       id="text16"
       aria-label="Rahul Pai Creations">
      <path
         id="path23"
         style="font-variant:normal;font-weight:normal;font-stretch:normal;font-size:4.71861px;font-family:'Times New Roman';-inkscape-font-specification:'Times New Roman, ';fill:#ffffff;stroke-width:0.0884739"
         d="m 39.978276,121.04541 h -0.834051 l -1.05754,-1.46074 q -0.117505,0.005 -0.191233,0.005 -0.02995,0 -0.06451,0 -0.03456,-0.002 -0.07142,-0.005 v 0.90778 q 0,0.29491 0.06451,0.36634 0.08755,0.10137 0.262657,0.10137 h 0.122112 v 0.0853 h -1.338629 v -0.0853 h 0.117505 q 0.198144,0 0.283393,-0.12902 0.04838,-0.0714 0.04838,-0.33869 v -2.01831 q 0,-0.29492 -0.06451,-0.36634 -0.08986,-0.10138 -0.267265,-0.10138 h -0.117505 v -0.0853 h 1.13818 q 0.497666,0 0.732675,0.0737 0.237313,0.0714 0.400898,0.26727 0.165888,0.19353 0.165888,0.4631 0,0.288 -0.188928,0.49997 -0.186625,0.21197 -0.580611,0.29952 l 0.645123,0.89626 q 0.221185,0.30874 0.380161,0.41012 0.158977,0.10137 0.414722,0.12902 z m -2.21876,-1.60589 q 0.04378,0 0.07603,0.002 0.03226,0 0.05299,0 0.446978,0 0.672771,-0.19354 0.228096,-0.19353 0.228096,-0.49305 0,-0.29261 -0.18432,-0.47463 -0.182017,-0.18432 -0.483842,-0.18432 -0.133633,0 -0.361729,0.0438 z" />
      <path
         id="path25"
         style="font-variant:normal;font-weight:normal;font-stretch:normal;font-size:4.71861px;font-family:'Times New Roman';-inkscape-font-specification:'Times New Roman, ';fill:#ffffff;stroke-width:0.0884739"
         d="m 41.284649,120.74128 q -0.324865,0.25114 -0.40781,0.29031 -0.124416,0.0576 -0.264961,0.0576 -0.218881,0 -0.361729,-0.14976 -0.140545,-0.14976 -0.140545,-0.39399 0,-0.15437 0.06912,-0.26726 0.09446,-0.15668 0.327169,-0.29492 0.235009,-0.13824 0.778755,-0.33638 v -0.0829 q 0,-0.31565 -0.101377,-0.43315 -0.09907,-0.11751 -0.290305,-0.11751 -0.145152,0 -0.230401,0.0783 -0.08755,0.0783 -0.08755,0.17971 l 0.0046,0.13364 q 0,0.10598 -0.0553,0.16358 -0.05299,0.0576 -0.140545,0.0576 -0.08525,0 -0.140544,-0.0599 -0.05299,-0.0599 -0.05299,-0.16359 0,-0.19814 0.202752,-0.36403 0.202753,-0.16589 0.569091,-0.16589 0.281089,0 0.460801,0.0945 0.135937,0.0714 0.200449,0.22349 0.04147,0.0991 0.04147,0.40551 v 0.71655 q 0,0.30182 0.01152,0.37094 0.01152,0.0668 0.03686,0.0899 0.02765,0.023 0.06221,0.023 0.03686,0 0.06451,-0.0161 0.04838,-0.0299 0.186625,-0.16819 v 0.12902 q -0.258049,0.3456 -0.493058,0.3456 -0.112897,0 -0.179713,-0.0783 -0.06682,-0.0783 -0.06912,-0.26727 z m 0,-0.14976 v -0.8041 q -0.347906,0.13824 -0.449282,0.19584 -0.182017,0.10138 -0.260353,0.21197 -0.07834,0.11059 -0.07834,0.24192 0,0.16589 0.09907,0.27648 0.09907,0.10829 0.228097,0.10829 0.175105,0 0.460802,-0.2304 z" />
      <path
         id="path27"
         style="font-variant:normal;font-weight:normal;font-stretch:normal;font-size:4.71861px;font-family:'Times New Roman';-inkscape-font-specification:'Times New Roman, ';fill:#ffffff;stroke-width:0.0884739"
         d="m 42.800686,117.76911 v 1.54369 q 0.255745,-0.28109 0.405506,-0.35943 0.149761,-0.0806 0.299521,-0.0806 0.179713,0 0.308737,0.0991 0.129025,0.0991 0.191233,0.31104 0.04378,0.14746 0.04378,0.53914 v 0.7465 q 0,0.20045 0.03226,0.27418 0.02304,0.0553 0.07834,0.0876 0.0553,0.0323 0.202752,0.0323 v 0.0829 H 43.326 v -0.0829 h 0.04838 q 0.147456,0 0.205056,-0.0438 0.0576,-0.0461 0.08064,-0.13363 0.0069,-0.0369 0.0069,-0.21658 v -0.7465 q 0,-0.3456 -0.03686,-0.45389 -0.03456,-0.10829 -0.112897,-0.16128 -0.07834,-0.0553 -0.188929,-0.0553 -0.112896,0 -0.235008,0.0599 -0.122113,0.0599 -0.29261,0.24192 v 1.11514 q 0,0.21658 0.02304,0.26957 0.02534,0.053 0.08986,0.0899 0.06682,0.0346 0.228097,0.0346 v 0.0829 h -1.04602 v -0.0829 q 0.140544,0 0.221185,-0.0438 0.04608,-0.023 0.07373,-0.0875 0.02765,-0.0645 0.02765,-0.26266 v -1.91002 q 0,-0.36173 -0.01843,-0.44468 -0.01613,-0.0829 -0.05299,-0.11289 -0.03456,-0.03 -0.09446,-0.03 -0.04838,0 -0.156672,0.0369 l -0.03226,-0.0806 0.631298,-0.25805 z" />
      <path
         id="path29"
         style="font-variant:normal;font-weight:normal;font-stretch:normal;font-size:4.71861px;font-family:'Times New Roman';-inkscape-font-specification:'Times New Roman, ';fill:#ffffff;stroke-width:0.0884739"
         d="m 46.390332,118.93494 v 1.27872 q 0,0.36634 0.01613,0.44928 0.01843,0.0806 0.0553,0.1129 0.03917,0.0323 0.08986,0.0323 0.07142,0 0.16128,-0.0392 l 0.03226,0.0806 -0.631298,0.26035 h -0.10368 v -0.44698 q -0.271873,0.29492 -0.414722,0.37095 -0.142849,0.076 -0.301825,0.076 -0.177409,0 -0.308737,-0.10137 -0.129025,-0.10368 -0.179713,-0.26496 -0.05069,-0.16129 -0.05069,-0.4562 v -0.94234 q 0,-0.14976 -0.03226,-0.20736 -0.03226,-0.0576 -0.09677,-0.0876 -0.06221,-0.0323 -0.228097,-0.0299 v -0.0853 h 0.739587 v 1.41236 q 0,0.29491 0.101377,0.38707 0.10368,0.0922 0.248833,0.0922 0.09907,0 0.223488,-0.0622 0.126721,-0.0622 0.299522,-0.23731 v -1.19578 q 0,-0.17971 -0.06682,-0.24192 -0.06451,-0.0645 -0.271873,-0.0691 v -0.0853 z" />
      <path
         id="path31"
         style="font-variant:normal;font-weight:normal;font-stretch:normal;font-size:4.71861px;font-family:'Times New Roman';-inkscape-font-specification:'Times New Roman, ';fill:#ffffff;stroke-width:0.0884739"
         d="m 47.625281,117.76911 v 2.79937 q 0,0.19815 0.02765,0.26266 0.02995,0.0645 0.08986,0.0991 0.0599,0.0323 0.223488,0.0323 v 0.0829 h -1.034499 v -0.0829 q 0.145152,0 0.198144,-0.03 0.05299,-0.0299 0.08295,-0.0991 0.02995,-0.0691 0.02995,-0.26496 v -1.91693 q 0,-0.35713 -0.01613,-0.43777 -0.01613,-0.0829 -0.05299,-0.11289 -0.03456,-0.03 -0.08986,-0.03 -0.0599,0 -0.152064,0.0369 l -0.03917,-0.0806 0.628995,-0.25805 z" />
      <path
         id="path33"
         style="font-variant:normal;font-weight:normal;font-stretch:normal;font-size:4.71861px;font-family:'Times New Roman';-inkscape-font-specification:'Times New Roman, ';fill:#ffffff;stroke-width:0.0884739"
         d="m 50.208074,119.58236 v 0.91009 q 0,0.29491 0.06451,0.36634 0.08755,0.10137 0.264961,0.10137 h 0.119808 v 0.0853 h -1.338629 v -0.0853 h 0.117505 q 0.198144,0 0.283393,-0.12902 0.04608,-0.0714 0.04608,-0.33869 v -2.01831 q 0,-0.29492 -0.06221,-0.36634 -0.08986,-0.10138 -0.267265,-0.10138 h -0.117505 v -0.0853 h 1.145092 q 0.41933,0 0.661251,0.0876 0.241921,0.0853 0.407809,0.2903 0.165889,0.20506 0.165889,0.48615 0,0.38246 -0.253441,0.62208 -0.251137,0.23962 -0.711939,0.23962 -0.112896,0 -0.244225,-0.0161 -0.131328,-0.0161 -0.281089,-0.0484 z m 0,-0.13132 q 0.122113,0.023 0.216577,0.0346 0.09446,0.0115 0.161281,0.0115 0.239617,0 0.412417,-0.18432 0.175105,-0.18663 0.175105,-0.48154 0,-0.20275 -0.08294,-0.37556 -0.08295,-0.1751 -0.235009,-0.26035 -0.152065,-0.0876 -0.345601,-0.0876 -0.117505,0 -0.301826,0.0438 z" />
      <path
         id="path35"
         style="font-variant:normal;font-weight:normal;font-stretch:normal;font-size:4.71861px;font-family:'Times New Roman';-inkscape-font-specification:'Times New Roman, ';fill:#ffffff;stroke-width:0.0884739"
         d="m 53.210198,120.74128 q -0.324866,0.25114 -0.40781,0.29031 -0.124416,0.0576 -0.264961,0.0576 -0.218881,0 -0.361729,-0.14976 -0.140545,-0.14976 -0.140545,-0.39399 0,-0.15437 0.06912,-0.26726 0.09446,-0.15668 0.32717,-0.29492 0.235009,-0.13824 0.778755,-0.33638 v -0.0829 q 0,-0.31565 -0.101377,-0.43315 -0.09907,-0.11751 -0.290305,-0.11751 -0.145152,0 -0.230401,0.0783 -0.08755,0.0783 -0.08755,0.17971 l 0.0046,0.13364 q 0,0.10598 -0.0553,0.16358 -0.05299,0.0576 -0.140545,0.0576 -0.08525,0 -0.140544,-0.0599 -0.05299,-0.0599 -0.05299,-0.16359 0,-0.19814 0.202753,-0.36403 0.202753,-0.16589 0.56909,-0.16589 0.281089,0 0.460802,0.0945 0.135937,0.0714 0.200449,0.22349 0.04147,0.0991 0.04147,0.40551 v 0.71655 q 0,0.30182 0.01152,0.37094 0.01152,0.0668 0.03686,0.0899 0.02765,0.023 0.06221,0.023 0.03686,0 0.06451,-0.0161 0.04838,-0.0299 0.186624,-0.16819 v 0.12902 q -0.258049,0.3456 -0.493057,0.3456 -0.112897,0 -0.179713,-0.0783 -0.06682,-0.0783 -0.06912,-0.26727 z m 0,-0.14976 v -0.8041 q -0.347906,0.13824 -0.449282,0.19584 -0.182017,0.10138 -0.260353,0.21197 -0.07834,0.11059 -0.07834,0.24192 0,0.16589 0.09907,0.27648 0.09907,0.10829 0.228097,0.10829 0.175105,0 0.460802,-0.2304 z" />
      <path
         id="path37"
         style="font-variant:normal;font-weight:normal;font-stretch:normal;font-size:4.71861px;font-family:'Times New Roman';-inkscape-font-specification:'Times New Roman, ';fill:#ffffff;stroke-width:0.0884739"
         d="m 54.64329,117.76911 q 0.09677,0 0.163585,0.0691 0.06912,0.0668 0.06912,0.16358 0,0.0968 -0.06912,0.16589 -0.06682,0.0691 -0.163585,0.0691 -0.09677,0 -0.165888,-0.0691 -0.06912,-0.0691 -0.06912,-0.16589 0,-0.0968 0.06682,-0.16358 0.06912,-0.0691 0.168192,-0.0691 z m 0.191233,1.10362 v 1.69575 q 0,0.19815 0.02765,0.26496 0.02995,0.0645 0.08525,0.0968 0.0576,0.0323 0.207361,0.0323 v 0.0829 h -1.025284 v -0.0829 q 0.154369,0 0.207361,-0.03 0.05299,-0.0299 0.08294,-0.0991 0.03226,-0.0691 0.03226,-0.26496 v -0.81331 q 0,-0.3433 -0.02074,-0.44468 -0.01613,-0.0737 -0.05069,-0.10137 -0.03456,-0.03 -0.09446,-0.03 -0.06451,0 -0.156673,0.0346 l -0.03226,-0.0829 0.635907,-0.25805 z" />
      <path
         id="path39"
         style="font-variant:normal;font-weight:normal;font-stretch:normal;font-size:4.71861px;font-family:'Times New Roman';-inkscape-font-specification:'Times New Roman, ';fill:#ffffff;stroke-width:0.0884739"
         d="m 59.288173,117.84975 0.07142,1.06215 h -0.07142 q -0.142848,-0.47693 -0.407809,-0.6866 -0.264961,-0.20966 -0.635907,-0.20966 -0.311041,0 -0.562178,0.15898 -0.251137,0.15667 -0.396289,0.50227 -0.142849,0.3456 -0.142849,0.85939 0,0.42394 0.135937,0.73498 0.135936,0.31104 0.407809,0.47693 0.274177,0.16589 0.624387,0.16589 0.304129,0 0.536834,-0.12902 0.232704,-0.13133 0.511489,-0.5184 l 0.07142,0.0461 q -0.235009,0.41702 -0.548354,0.61056 -0.313346,0.19353 -0.744195,0.19353 -0.776451,0 -1.202693,-0.576 -0.317953,-0.42854 -0.317953,-1.00915 0,-0.46772 0.209665,-0.8594 0.209665,-0.39168 0.576002,-0.60595 0.368641,-0.21658 0.804099,-0.21658 0.338689,0 0.668163,0.16589 0.09677,0.0507 0.13824,0.0507 0.06221,0 0.108289,-0.0438 0.0599,-0.0622 0.08525,-0.1728 z" />
      <path
         id="path41"
         style="font-variant:normal;font-weight:normal;font-stretch:normal;font-size:4.71861px;font-family:'Times New Roman';-inkscape-font-specification:'Times New Roman, ';fill:#ffffff;stroke-width:0.0884739"
         d="m 60.364145,118.87273 v 0.47463 q 0.264961,-0.47463 0.543746,-0.47463 0.126721,0 0.209665,0.0783 0.08295,0.076 0.08295,0.1774 0,0.0899 -0.05991,0.15207 -0.0599,0.0622 -0.142848,0.0622 -0.08064,0 -0.182017,-0.0783 -0.09907,-0.0806 -0.147456,-0.0806 -0.04147,0 -0.08986,0.0461 -0.10368,0.0945 -0.214273,0.31104 v 1.01146 q 0,0.17511 0.04378,0.26496 0.02995,0.0622 0.105984,0.10368 0.07603,0.0415 0.218881,0.0415 v 0.0829 h -1.08058 v -0.0829 q 0.16128,0 0.239617,-0.0507 0.0576,-0.0369 0.08064,-0.11751 0.01152,-0.0392 0.01152,-0.22349 v -0.81792 q 0,-0.36864 -0.01613,-0.43776 -0.01382,-0.0714 -0.0553,-0.10368 -0.03917,-0.0323 -0.09907,-0.0323 -0.07142,0 -0.16128,0.0346 l -0.02304,-0.0829 0.63821,-0.25805 z" />
      <path
         id="path43"
         style="font-variant:normal;font-weight:normal;font-stretch:normal;font-size:4.71861px;font-family:'Times New Roman';-inkscape-font-specification:'Times New Roman, ';fill:#ffffff;stroke-width:0.0884739"
         d="m 61.67743,119.72982 q -0.0023,0.47002 0.228096,0.73728 0.230401,0.26727 0.541442,0.26727 0.207361,0 0.359426,-0.1129 0.154368,-0.1152 0.258049,-0.39168 l 0.07142,0.0461 q -0.04838,0.31565 -0.281089,0.576 -0.232705,0.25805 -0.582914,0.25805 -0.380162,0 -0.652035,-0.29491 -0.269569,-0.29722 -0.269569,-0.79719 0,-0.54144 0.276481,-0.84326 0.278785,-0.30413 0.698115,-0.30413 0.354817,0 0.582914,0.235 0.228097,0.23271 0.228097,0.62439 z m 0,-0.13363 h 0.976899 q -0.01152,-0.20275 -0.04838,-0.2857 -0.0576,-0.12902 -0.172801,-0.20275 -0.112896,-0.0737 -0.237313,-0.0737 -0.191232,0 -0.343297,0.14976 -0.14976,0.14746 -0.175104,0.41242 z" />
      <path
         id="path45"
         style="font-variant:normal;font-weight:normal;font-stretch:normal;font-size:4.71861px;font-family:'Times New Roman';-inkscape-font-specification:'Times New Roman, ';fill:#ffffff;stroke-width:0.0884739"
         d="m 64.610432,120.74128 q -0.324865,0.25114 -0.40781,0.29031 -0.124416,0.0576 -0.264961,0.0576 -0.218881,0 -0.361729,-0.14976 -0.140545,-0.14976 -0.140545,-0.39399 0,-0.15437 0.06912,-0.26726 0.09446,-0.15668 0.327169,-0.29492 0.235009,-0.13824 0.778755,-0.33638 v -0.0829 q 0,-0.31565 -0.101377,-0.43315 -0.09907,-0.11751 -0.290305,-0.11751 -0.145152,0 -0.230401,0.0783 -0.08755,0.0783 -0.08755,0.17971 l 0.0046,0.13364 q 0,0.10598 -0.0553,0.16358 -0.05299,0.0576 -0.140545,0.0576 -0.08525,0 -0.140544,-0.0599 -0.05299,-0.0599 -0.05299,-0.16359 0,-0.19814 0.202752,-0.36403 0.202753,-0.16589 0.569091,-0.16589 0.281089,0 0.460801,0.0945 0.135937,0.0714 0.200449,0.22349 0.04147,0.0991 0.04147,0.40551 v 0.71655 q 0,0.30182 0.01152,0.37094 0.01152,0.0668 0.03686,0.0899 0.02765,0.023 0.06221,0.023 0.03686,0 0.06451,-0.0161 0.04838,-0.0299 0.186625,-0.16819 v 0.12902 q -0.258049,0.3456 -0.493058,0.3456 -0.112897,0 -0.179713,-0.0783 -0.06682,-0.0783 -0.06912,-0.26727 z m 0,-0.14976 v -0.8041 q -0.347905,0.13824 -0.449282,0.19584 -0.182017,0.10138 -0.260353,0.21197 -0.07834,0.11059 -0.07834,0.24192 0,0.16589 0.09907,0.27648 0.09907,0.10829 0.228097,0.10829 0.175105,0 0.460802,-0.2304 z" />
      <path
         id="path47"
         style="font-variant:normal;font-weight:normal;font-stretch:normal;font-size:4.71861px;font-family:'Times New Roman';-inkscape-font-specification:'Times New Roman, ';fill:#ffffff;stroke-width:0.0884739"
         d="m 66.119559,118.24143 v 0.69351 h 0.493057 v 0.16128 h -0.493057 v 1.36858 q 0,0.20506 0.0576,0.27648 0.0599,0.0714 0.152064,0.0714 0.07603,0 0.147457,-0.0461 0.07142,-0.0484 0.110592,-0.14055 h 0.08986 q -0.08064,0.22579 -0.228097,0.34099 -0.147457,0.1129 -0.304129,0.1129 -0.105985,0 -0.207361,-0.0576 -0.101376,-0.0599 -0.149761,-0.16819 -0.04838,-0.11059 -0.04838,-0.33869 v -1.41927 h -0.334081 v -0.076 q 0.12672,-0.0507 0.258049,-0.1705 0.133632,-0.12211 0.237313,-0.288 0.05299,-0.0875 0.147456,-0.32026 z" />
      <path
         id="path49"
         style="font-variant:normal;font-weight:normal;font-stretch:normal;font-size:4.71861px;font-family:'Times New Roman';-inkscape-font-specification:'Times New Roman, ';fill:#ffffff;stroke-width:0.0884739"
         d="m 67.352202,117.76911 q 0.09677,0 0.163585,0.0691 0.06912,0.0668 0.06912,0.16358 0,0.0968 -0.06912,0.16589 -0.06682,0.0691 -0.163585,0.0691 -0.09677,0 -0.165889,-0.0691 -0.06912,-0.0691 -0.06912,-0.16589 0,-0.0968 0.06682,-0.16358 0.06912,-0.0691 0.168193,-0.0691 z m 0.191233,1.10362 v 1.69575 q 0,0.19815 0.02765,0.26496 0.02995,0.0645 0.08525,0.0968 0.0576,0.0323 0.207361,0.0323 v 0.0829 h -1.025284 v -0.0829 q 0.154369,0 0.207361,-0.03 0.05299,-0.0299 0.08294,-0.0991 0.03226,-0.0691 0.03226,-0.26496 v -0.81331 q 0,-0.3433 -0.02074,-0.44468 -0.01613,-0.0737 -0.05069,-0.10137 -0.03456,-0.03 -0.09446,-0.03 -0.06451,0 -0.156673,0.0346 l -0.03226,-0.0829 0.635906,-0.25805 z" />
      <path
         id="path51"
         style="font-variant:normal;font-weight:normal;font-stretch:normal;font-size:4.71861px;font-family:'Times New Roman';-inkscape-font-specification:'Times New Roman, ';fill:#ffffff;stroke-width:0.0884739"
         d="m 69.156242,118.87273 q 0.479233,0 0.769539,0.36403 0.246528,0.31104 0.246528,0.71425 0,0.28339 -0.135936,0.57369 -0.135937,0.29031 -0.375553,0.43777 -0.237313,0.14745 -0.529922,0.14745 -0.47693,0 -0.758019,-0.38016 -0.237313,-0.32026 -0.237313,-0.71885 0,-0.2903 0.142848,-0.576 0.145153,-0.288 0.380162,-0.42394 0.235009,-0.13824 0.497666,-0.13824 z m -0.07143,0.14976 q -0.122112,0 -0.246529,0.0737 -0.122112,0.0714 -0.198144,0.25344 -0.07603,0.18202 -0.07603,0.46771 0,0.46081 0.182017,0.79489 0.184321,0.33408 0.483842,0.33408 0.223489,0 0.368641,-0.18432 0.145153,-0.18432 0.145153,-0.63361 0,-0.56217 -0.241921,-0.88473 -0.163585,-0.22119 -0.417026,-0.22119 z" />
      <path
         id="path53"
         style="font-variant:normal;font-weight:normal;font-stretch:normal;font-size:4.71861px;font-family:'Times New Roman';-inkscape-font-specification:'Times New Roman, ';fill:#ffffff;stroke-width:0.0884739"
         d="m 71.098522,119.31971 q 0.370946,-0.44698 0.707331,-0.44698 0.172801,0 0.297217,0.0875 0.124417,0.0853 0.198145,0.2834 0.05069,0.13824 0.05069,0.42393 v 0.90087 q 0,0.20045 0.03226,0.27187 0.02534,0.0576 0.08064,0.0899 0.0576,0.0323 0.209664,0.0323 v 0.0829 h -1.043716 v -0.0829 h 0.04378 q 0.147456,0 0.205056,-0.0438 0.05991,-0.0461 0.08294,-0.13363 0.0092,-0.0346 0.0092,-0.21658 v -0.864 q 0,-0.288 -0.07603,-0.41703 -0.07373,-0.13133 -0.251137,-0.13133 -0.274177,0 -0.54605,0.29952 v 1.11284 q 0,0.21427 0.02535,0.26496 0.03226,0.0668 0.08755,0.0991 0.0576,0.03 0.230401,0.03 v 0.0829 h -1.043716 v -0.0829 h 0.04608 q 0.161281,0 0.216577,-0.0806 0.0576,-0.0829 0.0576,-0.31335 v -0.78336 q 0,-0.38016 -0.01843,-0.46311 -0.01613,-0.0829 -0.05299,-0.11289 -0.03456,-0.03 -0.09446,-0.03 -0.06451,0 -0.154368,0.0346 l -0.03456,-0.0829 0.635906,-0.25805 h 0.09907 z" />
      <path
         id="path55"
         style="font-variant:normal;font-weight:normal;font-stretch:normal;font-size:4.71861px;font-family:'Times New Roman';-inkscape-font-specification:'Times New Roman, ';fill:#ffffff;stroke-width:0.0884739"
         d="m 74.206628,118.87273 v 0.71885 h -0.07603 q -0.08755,-0.33869 -0.225792,-0.4608 -0.135937,-0.12211 -0.347906,-0.12211 -0.16128,0 -0.260353,0.0852 -0.09907,0.0853 -0.09907,0.18893 0,0.12903 0.07373,0.22119 0.07143,0.0945 0.290305,0.20045 l 0.336386,0.16358 q 0.467713,0.2281 0.467713,0.60135 0,0.288 -0.21888,0.46541 -0.216577,0.1751 -0.486146,0.1751 -0.193537,0 -0.44237,-0.0691 -0.07603,-0.023 -0.124416,-0.023 -0.05299,0 -0.08294,0.0599 h -0.07603 v -0.75341 h 0.07603 q 0.06451,0.32256 0.246529,0.48614 0.182017,0.16359 0.40781,0.16359 0.158976,0 0.258049,-0.0922 0.101376,-0.0945 0.101376,-0.2258 0,-0.15897 -0.112896,-0.26726 -0.110593,-0.10829 -0.444674,-0.27418 -0.334081,-0.16589 -0.437762,-0.29952 -0.10368,-0.13133 -0.10368,-0.33178 0,-0.26035 0.177409,-0.43546 0.179712,-0.1751 0.463105,-0.1751 0.124417,0 0.301825,0.053 0.117505,0.0346 0.156673,0.0346 0.03686,0 0.0576,-0.0161 0.02074,-0.0161 0.04838,-0.0714 z" />
    </g>
    <g
       style="font-style:normal;font-weight:normal;font-size:24.6945px;line-height:1.25;font-family:sans-serif;fill:#ffffff;fill-opacity:1;stroke:none;stroke-width:0.637919"
       id="text12-7"
       aria-label="P">
      <path
         id="path20"
         style="font-style:normal;font-variant:normal;font-weight:normal;font-stretch:normal;font-size:24.6945px;font-family:'Times New Roman';-inkscape-font-specification:'Times New Roman, ';fill:#ffffff;stroke-width:0.637919"
         d="m 54.717443,108.69282 v 4.76286 q 0,1.5434 0.33762,1.9172 0.458199,0.53054 1.386654,0.53054 h 0.627009 v 0.44614 h -7.005618 v -0.44614 h 0.614951 q 1.036976,0 1.483117,-0.67524 0.241157,-0.37379 0.241157,-1.7725 v -10.56269 q 0,-1.54341 -0.325562,-1.9172 -0.470256,-0.53055 -1.398712,-0.53055 h -0.614951 v -0.446136 h 5.992757 q 2.194531,0 3.460607,0.458196 1.266075,0.44614 2.134241,1.51929 0.868166,1.07315 0.868166,2.54421 0,2.00161 -1.326365,3.25562 -1.314307,1.25402 -3.725879,1.25402 -0.590835,0 -1.278133,-0.0844 -0.687298,-0.0844 -1.471059,-0.25322 z m 0,-0.6873 q 0.639066,0.12058 1.133439,0.18087 0.494372,0.0603 0.84405,0.0603 1.254018,0 2.158357,-0.96463 0.916398,-0.97668 0.916398,-2.52009 0,-1.06109 -0.434083,-1.96543 -0.434083,-0.9164 -1.229902,-1.36254 -0.795819,-0.4582 -1.808679,-0.4582 -0.614951,0 -1.57958,0.2291 z" />
    </g>
    <g
       style="font-style:normal;font-weight:normal;font-size:24.6944px;line-height:1.25;font-family:sans-serif;fill:#ffffff;fill-opacity:1;stroke:none;stroke-width:0.637916"
       id="text12-0"
       aria-label="C">
      <path
         id="path17"
         style="font-style:normal;font-variant:normal;font-weight:normal;font-stretch:normal;font-size:24.6944px;font-family:'Times New Roman';-inkscape-font-specification:'Times New Roman, ';fill:#ffffff;stroke-width:0.637916"
         d="m 73.391175,99.625003 0.373792,5.558657 h -0.373792 q -0.747585,-2.49597 -2.134233,-3.59323 -1.386649,-1.09726 -3.327957,-1.09726 -1.627804,0 -2.942106,0.83198 -1.314301,0.81994 -2.073944,2.62861 -0.747584,1.80867 -0.747584,4.49756 0,2.21864 0.711411,3.84644 0.711411,1.62781 2.134233,2.49597 1.43488,0.86816 3.267667,0.86816 1.591631,0 2.80947,-0.67523 1.21784,-0.6873 2.676835,-2.71301 l 0.373792,0.24116 q -1.229897,2.18246 -2.869759,3.19532 -1.639863,1.01285 -3.894674,1.01285 -4.063483,0 -6.294178,-3.01445 -1.663978,-2.24275 -1.663978,-5.28132 0,-2.44774 1.097261,-4.49757 1.097261,-2.04983 3.014453,-3.1712 1.92925,-1.133437 4.208176,-1.133437 1.772499,0 3.496766,0.868167 0.506428,0.26527 0.723469,0.26527 0.325561,0 0.566717,-0.2291 0.313503,-0.32556 0.446139,-0.904337 z" />
    </g>
  </g>
</svg>
